<svg width="445" height="403" viewBox="0 0 445 403" fill="none" xmlns="http://www.w3.org/2000/svg">
<g clip-path="url(#clip0_182_8)">
<path d="M378.5 83C383.3 83.8 390.833 77.6667 394 74.5C389 68.5 388.5 69.5 382.5 69.5C376.5 69.5 372.5 82 378.5 83Z" fill="#50949E"/>
<path d="M176.5 151.5C164.1 140.3 151.667 145.167 147 149C164.2 166.2 182.167 159.833 189 154.5C184.2 145.3 178.667 148.667 176.5 151.5Z" fill="#50949E"/>
<path fill-rule="evenodd" clip-rule="evenodd" d="M82.5 70C99.3333 87.1667 133.2 132.8 134 178C134.928 230.448 131.979 238.518 118.353 275.802C117.3 278.682 116.183 281.737 115 285H151.5C159.333 284.667 175 287.1 175 299.5C175.167 301.833 173.6 308.1 166 314.5C156.5 322.5 159 334.5 172 348C185 361.5 205.5 381.5 221.5 376.5C225.667 373.667 232.6 363 227 343C220 318 198 308 189.5 306.5C190.667 301 191.2 288.1 184 280.5L220 269C226.167 267.667 240.7 266.3 249.5 271.5C260.5 278 268.5 289.5 269 296C269.4 301.2 271.167 298.167 272 296C271.667 290.333 275 274.3 291 255.5C307 236.7 318 234 321.5 235C314.333 231.167 296.9 227.5 284.5 243.5C272.1 259.5 269 265.167 269 266C264.5 261.5 251.8 252.4 237 252C245 236 259.6 192.5 254 146.5C248.4 100.5 240 77.6667 236.5 72C235.167 70.6667 230.6 65.2 223 54C215.4 42.8 166.167 44.3334 142.5 46.5C127.833 49 95.3 57.2 82.5 70ZM118.5 87L137.5 124.5C134.833 128.333 131.1 138.9 137.5 150.5L148 161.5C149.167 168 151.4 185.3 151 202.5C150.6 219.7 147.167 239.667 145.5 247.5C151 248.333 163.1 250.8 167.5 254C170.333 255.333 176.5 259.7 178.5 266.5C181.167 267 190.2 266.6 205 261C207.667 254 216.6 238.7 231 233.5C239.333 214.667 252.4 164.7 238 115.5C240.5 113.667 245.4 108.5 245 102.5C244.6 96.5 240.167 83 238 77C234 73.6667 224.1 69 216.5 77C213 76.3334 204.1 73.2 196.5 66L190.5 59C182.667 58.5 163.1 58 147.5 60C148.5 63.6667 149.5 71.9 145.5 75.5C144.667 77.8334 138.1 83.4 118.5 87Z" fill="#50949E"/>
<path d="M324.5 210.5C292.1 238.9 265.667 228.333 256.5 219.5L258.5 197C265.5 209 277.5 214 285.5 213.5C291.9 213.1 305.5 205.667 311.5 202C304.7 198.8 303.667 189.333 304 185C294 178.2 296.833 172.833 299.5 171C307.1 166.2 314 169 316.5 171C319.167 168.667 327.1 162.2 337.5 155C347.9 147.8 354.5 149.667 356.5 151.5C366.9 147.1 371.833 149.667 373 151.5C373.833 153.333 374 158.1 368 162.5C362 166.9 354.167 175.333 351 179C359.833 173.333 378.5 164.2 382.5 173C387.5 184 367.5 183 354 200C343.2 213.6 329.833 212.667 324.5 210.5Z" fill="#50949E"/>
<path d="M59 260.5C57.8 210.1 89.1666 179.5 105 170.5C107.8 171.7 108.833 182.333 109 187.5C106.833 188.167 99.8 193.6 89 210C75.5 230.5 76 252.5 74.5 258C73 263.5 74 266.5 78.5 270C82.1 272.8 82.3333 292.167 82 301.5L89 314C90.5 322.5 76 324 69.5 319C64.3 315 63 305.667 63 301.5C57.8 300.3 53.1667 311.333 51.5 317C47.1 328.2 43 330.667 41.5 330.5C35.9 330.5 32.8333 323.833 32 320.5C27.6 324.1 25.1667 324.333 24.5 324C16.1 323.2 16.3333 308.667 17.5 301.5L13.5 297.5C12.7 281.9 29.1667 272.667 37.5 270C49.9 261.6 57 260.167 59 260.5Z" fill="#50949E"/>
<path fill-rule="evenodd" clip-rule="evenodd" d="M366.937 1.01615C358.282 3.22415 350.576 7.40615 344.524 13.1782C333.584 23.6132 328.788 36.7932 329.785 53.6802C330.094 58.9052 331.008 65.2772 331.817 67.8402C336.279 81.9812 346.019 94.3921 356.791 99.6661C366.443 104.391 371.972 105.089 390.198 103.879C406.571 102.792 414.052 101.046 420.767 96.7441L423.937 94.7141L415.565 94.6972C408.633 94.6832 407.386 94.4472 408.317 93.3242C409.702 91.6562 424.36 90.3711 426.046 91.7701C427.337 92.8421 433.758 86.1912 437.415 79.9932L439.488 76.4791L430.437 76.8301C422.808 77.1251 421.431 76.9442 421.672 75.6802C421.894 74.5162 424.081 74.0682 431.447 73.6802L440.937 73.1802L442.56 68.1802C443.452 65.4302 444.478 60.8362 444.839 57.9702L445.495 52.7602L435.466 53.3712C426.829 53.8972 425.437 53.7682 425.437 52.4392C425.437 51.1992 427.399 50.7552 435.429 50.1812C444.944 49.5002 445.401 49.3632 444.987 47.3232C444.748 46.1442 444.267 43.3802 443.919 41.1802C443.571 38.9802 442.177 34.6902 440.822 31.6462L438.358 26.1122L428.547 26.5072C420.213 26.8412 418.643 26.6582 418.118 25.2902C417.599 23.9372 418.334 23.6781 422.718 23.6691C425.589 23.6631 429.614 23.3812 431.665 23.0422L435.392 22.4262L433.398 19.6252C430.54 15.6112 419.265 7.34015 418.45 8.65915C417.33 10.4701 407.721 11.1602 405.791 9.56715C404.299 8.33615 404.775 8.05915 410.023 7.10315L415.937 6.02715L407.437 3.20015C400.12 0.767148 397.058 0.32915 385.437 0.0571501C376.753 -0.14585 370.153 0.19615 366.937 1.01615ZM387.757 3.17515C396.3 5.40015 401.294 8.32215 407.635 14.8012C418.62 26.0282 424.931 45.2222 422.691 60.5922C419.29 83.9252 405.093 98.4782 382.635 101.652C358.855 105.013 338.597 88.7411 332.83 61.6451C329.981 48.2581 332.508 33.4782 339.512 22.5642C349.47 7.04515 370.369 -1.35385 387.757 3.17515ZM365.688 8.16815C358.178 10.2722 352.834 13.2282 347.467 18.2492C325.763 38.5502 332.412 80.7911 359.437 94.3021C373.399 101.283 394.863 97.1621 406.611 85.2461C427.014 64.5501 419.782 23.2662 393.437 10.0532C386.675 6.66215 374.113 5.80815 365.688 8.16815ZM391.717 11.6502C402.7 16.8852 410.967 27.6122 414.419 41.1082C417.628 53.6572 416.778 63.8752 411.645 74.4582C405.159 87.8292 388.389 96.7172 372.2 95.3622C353.118 93.7662 338.556 76.6342 336.77 53.6802C334.746 27.6762 353.675 7.87015 379.437 9.03315C384.622 9.26715 388.413 10.0752 391.717 11.6502ZM382.157 24.2681C378.432 26.2881 379.672 28.1272 383.444 26.1762C387.926 23.8592 392.813 24.2842 396.403 27.3042C400.618 30.8522 401.788 29.2772 397.671 25.5972C395.015 23.2252 393.521 22.6872 389.671 22.7202C387.067 22.7422 383.686 23.4381 382.157 24.2681ZM346.766 27.1382C343.307 28.6422 341.107 31.8112 341.666 34.4822C341.931 35.7522 342.392 35.4232 343.489 33.1802C345.446 29.1822 352.064 26.7232 356.433 28.3722C359.833 29.6562 361.524 28.3322 358.531 26.7302C355.847 25.2942 350.585 25.4762 346.766 27.1382ZM381.551 31.3132C378.497 33.4522 375.487 40.2052 375.459 44.9802C375.436 48.9162 377.389 53.7172 380.423 57.1802C381.386 58.2802 382.454 60.3662 382.796 61.8162C383.55 65.0142 381.908 65.6461 372.798 65.6661C368.239 65.6761 366.054 65.1902 364.309 63.7772L361.959 61.8752L364.156 57.9662C368.729 49.8292 368.008 40.5172 362.387 35.1322C356.124 29.1322 346.335 32.3982 343.335 41.4892C342.253 44.7672 342.631 55.2082 343.877 56.4532C344.187 56.7632 345.551 56.4222 346.909 55.6952C353.179 52.3392 360.437 56.2162 360.437 62.9202C360.437 67.0922 356.938 74.1222 353.856 76.1412C352.491 77.0362 351.654 78.2232 351.998 78.7782C352.393 79.4182 353.49 79.2202 354.985 78.2412C357.202 76.7882 357.519 76.8542 360.142 79.3192C367.934 86.6412 381.546 86.5592 390.217 79.1372C392.287 77.3642 394.838 75.7492 395.886 75.5472C397.456 75.2452 397.138 74.7412 394.074 72.6802C389.221 69.4162 384.437 62.2192 384.437 58.1832C384.437 53.0602 390.37 48.6802 397.308 48.6802H401.311L400.783 44.9302C399.259 34.1162 395.692 29.6802 388.523 29.6802C385.849 29.6802 382.894 30.3722 381.551 31.3132ZM394.808 34.7092C397.942 38.4342 399.32 44.5072 397.319 45.7742C396.559 46.2562 394.987 46.6562 393.827 46.6652C392.666 46.6732 390.058 47.8052 388.032 49.1802C383.788 52.0602 383.302 52.1961 384.031 50.2971C384.829 48.2161 381.763 41.6802 379.988 41.6802C378.154 41.6802 378.021 40.3622 379.554 37.3642C381.374 33.8052 384.695 31.7262 388.598 31.7022C391.461 31.6852 392.815 32.3402 394.808 34.7092ZM361.257 37.0842C364.209 39.9872 365.595 46.0202 364.466 51.0462C363.193 56.7112 362.251 57.1722 357.935 54.2432C355.857 52.8332 353.321 51.6802 352.297 51.6802C351.089 51.6802 350.437 50.9622 350.437 49.6322C350.437 48.5062 349.312 46.5422 347.937 45.2682C344.889 42.4432 344.851 41.6952 347.575 38.2322C351.546 33.1842 356.839 32.7402 361.257 37.0842ZM148.437 44.3372C124.56 47.4142 98.948 56.0741 84.595 65.9231C80.046 69.0451 74.074 77.4431 68.449 88.6301C65.781 93.9372 65.413 95.4112 66.372 96.9472C67.355 98.5212 67.113 99.1472 64.832 100.941C63.344 102.111 60.573 106.433 58.673 110.544L55.219 118.02L59.578 121.557C72.771 132.263 84.906 150.255 91.705 169.192L94.222 176.203L87.848 182.931L81.474 189.659L76.76 186.67C65.393 179.461 51.693 185.808 44.755 201.496C41.858 208.046 39.957 210.437 31.924 217.633C15.7 232.169 16.579 240.789 35.194 249.708L40.47 252.235L34.203 255.842C8.73701 270.497 -2.59598 289.105 0.498015 311.18C2.31802 324.17 11.423 339.288 21.268 345.667C25.348 348.311 26.892 350.216 29.921 356.344C39.961 376.659 65.873 391.82 97.212 395.714C101.869 396.293 107.762 396.687 110.308 396.589C112.854 396.492 118.438 397.358 122.717 398.513C134.853 401.789 146.65 403.01 159.937 402.364C182.846 401.25 200.579 396.333 219.437 385.865C221.362 384.797 225.489 383.449 228.608 382.87C245.553 379.728 259.432 366.128 265.033 347.18C267.432 339.065 267.472 321.552 265.112 312.68C263.105 305.132 257.82 293.543 253.601 287.436C251.984 285.095 247.87 280.142 244.46 276.43C241.05 272.718 238.733 269.68 239.311 269.68C239.889 269.68 242.777 270.584 245.729 271.688C255.674 275.409 263.526 284.117 267.961 296.344C270.745 304.02 273.466 307.318 278.063 308.587C285.274 310.578 293.51 306.432 304.009 295.526C318.035 280.957 327.328 263.608 328.994 248.88C329.985 240.116 328.008 236.289 320.779 232.979C310.117 228.098 298.733 229.912 288.222 238.166C282.286 242.828 273.366 254.47 271.253 260.313C269.792 264.352 269.13 264.441 265.198 261.132C259.955 256.721 252.952 253.834 241.265 251.268L238.593 250.681L241.915 242.431C243.742 237.893 246.22 230.805 247.42 226.68C248.621 222.555 249.791 218.582 250.019 217.851C250.304 216.941 251.764 217.66 254.649 220.129C272.104 235.07 297.114 233.756 318.116 216.793C324.024 212.021 324.455 211.846 327.939 212.808C332.345 214.025 340.315 212.555 344.863 209.687C346.554 208.621 351.005 204.58 354.754 200.708C359.264 196.05 364.774 191.781 371.038 188.095C376.245 185.031 381.39 181.574 382.471 180.413C385.158 177.53 384.937 174.089 381.87 171.022C379.546 168.698 378.719 168.496 373.12 168.883C369.579 169.127 365.047 170.241 362.513 171.488C360.08 172.686 357.919 173.495 357.71 173.287C357.502 173.078 361.062 170.028 365.622 166.51C374.91 159.343 376.793 156.189 374.368 151.862C371.865 147.397 368.297 146.277 362.236 148.054C358.521 149.143 356.55 149.276 355.157 148.53C349.821 145.675 333.987 153.449 321.831 164.892L316.725 169.698L313.113 168.189C308.517 166.269 305.084 166.279 300.983 168.225C294.279 171.406 293.922 177.365 300.068 183.511C302.483 185.926 303.419 187.641 303.063 189C302.246 192.128 303.482 196.437 305.967 199.118L308.252 201.584L304.674 204.313C298.66 208.9 290.715 211.63 283.301 211.656C271.251 211.699 262.313 204.899 257.416 191.962C255.476 186.834 255.3 184.992 255.861 175.68C257.263 152.391 253.745 126.102 244.283 89.1802C240.869 75.8592 240.395 74.7401 236.327 70.3821C234.168 68.0711 230.182 62.7112 227.467 58.4722C221.989 49.9162 221.615 49.7151 204.396 46.0891C197.068 44.5451 156.641 43.2802 148.437 44.3372ZM201.437 48.1972C217.35 51.0332 220.33 52.3682 224.666 58.6012C226.74 61.5822 228.437 64.3952 228.437 64.8512C228.437 65.3072 226.619 65.6802 224.397 65.6802C220.311 65.6802 212.437 68.9462 212.437 70.6412C212.437 72.3322 214.196 72.6751 215.404 71.2201C217.251 68.9941 223.198 67.4131 227.024 68.1301C230.337 68.7521 237.437 73.9502 237.437 75.7532C237.437 76.2302 235.799 75.5082 233.797 74.1502C229.196 71.0272 223.56 70.9212 218.333 73.8592L214.456 76.0382L207.747 72.6092C202.961 70.1622 199.762 67.6042 196.582 63.6802C194.06 60.5682 190.998 57.9061 189.531 57.5481C181.84 55.6751 149.216 57.5432 146.746 59.9972C145.842 60.8962 145.826 62.1822 146.682 65.3512C147.715 69.1772 147.59 69.8512 145.163 73.5182C141.748 78.6782 132.46 83.3371 123.451 84.4081C115.288 85.3791 114.928 86.5752 120.26 95.0172C122.447 98.4802 126.815 106.455 129.967 112.739L135.697 124.165L133.966 130.838C132.542 136.328 132.43 138.422 133.336 142.646C134.85 149.706 136.434 152.418 142.258 157.922C147.012 162.415 147.32 163.02 148.107 169.422C148.563 173.139 148.916 186.305 148.891 198.68C148.853 217.517 148.475 223.271 146.57 234.023C145.319 241.087 144.519 247.452 144.794 248.167C145.084 248.925 147.929 249.769 151.615 250.191C155.092 250.59 160.205 251.76 162.978 252.792C168.697 254.919 175.132 260.934 176.325 265.266C177.084 268.023 177.391 268.168 182.032 267.961C184.73 267.84 190.987 266.483 195.937 264.944L204.937 262.146L209.177 255.712C214.783 247.202 220.759 241.158 227.21 237.474C230.11 235.818 232.908 233.669 233.427 232.698C234.968 229.819 240.149 210.582 241.814 201.556C246.659 175.294 246.513 151.046 241.356 125.411L239.391 115.642L241.914 112.921C243.302 111.425 244.437 109.633 244.437 108.94C244.437 108.247 244.842 107.68 245.337 107.68C245.831 107.68 246.995 111.09 247.922 115.258C254.618 145.354 255.163 180.219 249.381 208.52C245.903 225.542 238.193 247.944 235.146 249.881C234.481 250.303 232.087 250.656 229.827 250.665C222.185 250.693 216.437 251.865 216.437 253.395C216.437 254.504 217.191 254.673 219.687 254.124C225.766 252.787 240.762 253.342 246.919 255.132C254.194 257.247 260.868 260.608 265.227 264.353C268.502 267.168 268.512 267.203 267.477 272.566C266.905 275.529 266.423 279.804 266.405 282.066L266.374 286.18L264.199 283.18C260.149 277.595 254.962 273.353 248.437 270.292C242.942 267.714 240.456 267.182 232.362 266.852C223.59 266.494 222.039 266.729 213.862 269.652C208.953 271.407 200.952 274.143 196.081 275.732L187.226 278.62L183.971 276.138C176.919 270.76 156.82 266.112 149.047 268.063C143.606 269.429 146.645 270.68 155.402 270.68C170.032 270.68 179.941 275.38 185.377 284.899C189.836 292.706 190.723 305.68 186.799 305.68C184 305.68 186.419 307.454 190.176 308.157C201.782 310.33 216.906 322.747 222.959 335.072C224.879 338.981 226.945 344.88 227.55 348.18C229.695 359.876 226.229 373.668 220.608 375.805C212.493 378.89 193.147 368.63 177.937 353.175C166.236 341.286 160.03 329.424 161.806 322.346C162.705 318.766 168.675 312.238 172.5 310.654C174.511 309.821 175.351 308.898 174.979 307.93C174.67 307.125 174.897 304.685 175.483 302.508C178.657 290.72 166.855 282.255 150.047 284.263C141.87 285.239 117.892 285.472 117.006 284.584C116.678 284.256 117.942 280.627 119.813 276.521C135.255 242.636 140.285 195.848 132.457 158.91C126.552 131.046 112.948 104.005 92.4 79.2831L84.174 69.3872L86.556 67.5772C90.992 64.2062 106.89 56.9192 116.473 53.8642C126.463 50.6802 137.817 48.2972 150.437 46.7372C161.408 45.3802 190.272 46.2062 201.437 48.1972ZM194.848 65.3442C200.155 71.3032 204.906 74.7062 210.461 76.5292L213.985 77.6861L213.961 86.4332C213.933 96.6762 215.258 101.717 219.701 108.265C224.164 114.844 227.56 117.124 232.944 117.155L237.372 117.18L238.458 122.18C241.358 135.532 242.646 148.264 242.657 163.68C242.672 186.442 240.514 201.513 234.27 222.234C231.296 232.102 231.157 232.332 226.771 234.659C219.981 238.261 210.797 247.653 207.921 253.935L205.423 259.391L197.18 261.973C186.095 265.444 180.326 266.903 179.792 266.368C179.548 266.125 178.356 263.958 177.143 261.553C173.382 254.098 164.654 249.38 152.092 248.012L146.248 247.375L146.9 244.278C151.437 222.741 153.031 201.2 151.513 181.93C150.874 173.817 150.094 166.327 149.78 165.284C149.317 163.743 149.606 163.491 151.322 163.94C155.202 164.954 154.485 162.907 150.184 160.69C144.143 157.576 140.538 153.929 137.82 148.18C132.104 136.089 136.832 122.983 147.712 120.758C149.486 120.395 150.712 119.678 150.437 119.166C149.7 117.791 145.405 118.569 141.63 120.76C139.811 121.816 138.145 122.68 137.928 122.68C137.711 122.68 135.79 118.967 133.66 114.43C131.53 109.893 127.287 102.039 124.231 96.9771C121.175 91.9162 118.922 87.5291 119.223 87.2271C119.524 86.9261 121.128 86.6802 122.788 86.6802C127.599 86.6802 136.593 83.7742 140.924 80.8212C147.37 76.4242 149.726 72.1622 149.113 66.0082L148.598 60.8362L155.767 60.2492C159.711 59.9262 164.737 59.4942 166.937 59.2892C169.137 59.0852 175.212 59.1232 180.437 59.3742L189.937 59.8302L194.848 65.3442ZM389.92 72.6612C392.135 75.1092 390.979 76.8532 385.178 79.8122C382.055 81.4052 380.993 81.5562 379.81 80.5752C377.965 79.0442 378.367 72.5221 380.346 71.8711C381.306 71.5551 381.559 71.9202 381.14 73.0122C380.093 75.7402 382.358 75.9482 383.593 73.2362C384.988 70.1762 387.467 69.9512 389.92 72.6612ZM86.666 76.2822C109.899 101.317 127.189 137.006 132.01 169.876C134.125 184.301 133.561 217.416 130.957 231.68C128.31 246.176 122.851 264.074 117.869 274.592L113.381 284.066L107.023 277.765L100.665 271.464L103.051 265.592C105.513 259.534 106.023 256.68 104.644 256.68C104.208 256.68 103.002 259.179 101.964 262.232C99.819 268.542 98.852 269.524 96.802 267.473C95.544 266.215 95.602 265.461 97.254 261.605C100.734 253.486 105.437 233.336 105.437 226.549C105.437 222.67 103.534 224.878 102.954 229.43C101.254 242.764 95.338 263.68 93.267 263.68C91.228 263.68 91.521 260.543 94.349 252.101C98.79 238.845 100.577 227.167 100.636 211.011L100.687 196.842L104.689 193.011L108.691 189.18L108.122 196.43C107.635 202.635 107.783 203.68 109.147 203.68C110.561 203.68 110.671 202.02 110.118 188.93C108.672 154.679 98.787 129.898 76.85 105.531L67.643 95.3041L70.248 89.9921C71.681 87.0701 73.153 84.6802 73.518 84.6802C74.821 84.6802 88.596 99.8842 94.464 107.797C101.373 117.115 106.413 125.846 111.073 136.565C112.889 140.742 114.886 144.33 115.511 144.538C117.117 145.073 116.031 141.889 110.799 130.723C104.856 118.041 95.483 104.303 84.499 92.1802C79.516 86.6802 75.449 81.7302 75.46 81.1802C75.472 80.6302 76.287 79.1331 77.272 77.8521L79.063 75.5252L85.262 82.1522C88.672 85.7972 93.97 92.3601 97.036 96.7351C100.102 101.111 103.028 104.433 103.537 104.118C104.756 103.365 96.02 90.8031 87.45 80.9851C81.618 74.3051 80.073 71.6802 81.975 71.6802C82.207 71.6802 84.318 73.7512 86.666 76.2822ZM167.074 73.1211C160.66 75.4471 155.691 81.1282 154.034 88.0282C153.006 92.3062 155.373 90.9071 156.957 86.3001C159.367 79.2891 165.146 74.8781 172.699 74.2831C175.03 74.0991 177.162 73.5512 177.437 73.0642C178.271 71.5892 171.192 71.6281 167.074 73.1211ZM225.026 76.7571C216.107 87.3571 231.961 113.156 241.52 103.597C244.266 100.851 244.537 101.364 242.889 106.18C241.284 110.873 236.357 115.68 233.153 115.68C222.568 115.68 211.799 92.3232 216.831 80.2792C218.461 76.3782 221.903 73.6802 225.248 73.6802H227.615L225.026 76.7571ZM237.437 82.1562C237.437 85.4152 235.72 86.2461 233.374 84.1231C231.163 82.1221 230.931 80.5861 232.59 78.9271C234.318 77.1991 237.437 79.2772 237.437 82.1562ZM168.457 81.3671C162.81 84.3081 160.437 88.8312 160.437 96.6502C160.437 105.483 162.662 111.602 168.057 117.602C180.78 131.753 201.449 126.29 201.431 108.782C201.424 101.398 200.074 96.8532 196.16 91.0322C189.84 81.6322 176.73 77.0581 168.457 81.3671ZM179.738 82.3142C180.086 82.6632 179.486 84.0732 178.404 85.4492C174.184 90.8141 177.091 105.439 183.555 111.363C189.004 116.357 195.833 116.355 198.248 111.359C199.297 109.19 199.302 109.19 199.369 111.282C199.471 114.436 195.35 119.952 191.417 121.928C182.589 126.364 172.204 121.873 165.675 110.797C162.024 104.604 161.359 92.6951 164.395 87.8731C165.54 86.0551 167.93 83.9352 169.707 83.1632C173.081 81.6952 178.648 81.2242 179.738 82.3142ZM191.562 88.9141C192.372 90.4271 192.287 91.2592 191.212 92.3332C189.306 94.2392 186.565 93.0402 185.793 89.9622C184.687 85.5552 189.315 84.7141 191.562 88.9141ZM70.542 111.43C81.299 122.589 89.646 134.174 95.94 146.68C99.972 154.692 104.451 165.933 104.416 167.953C104.395 169.132 96.599 175.27 96.052 174.537C95.905 174.341 94.755 171.255 93.496 167.68C87.622 151.002 75.686 132.515 64.163 122.251C59.387 117.996 58.247 116.47 59.164 115.553C60.632 114.085 69.305 121.163 74.52 128.084C78.096 132.83 79.437 133.68 79.437 131.201C79.437 129.636 66.557 116.026 62.609 113.419C60.364 111.937 60.338 111.771 61.885 108.781C62.767 107.076 63.828 105.68 64.244 105.68C64.66 105.68 67.494 108.268 70.542 111.43ZM146.762 126.116C137.509 130.208 137.354 142.693 146.445 151.783C152.276 157.615 160.204 160.771 170.704 161.442C182.98 162.227 190.801 157.993 192.814 149.472C193.638 145.985 190.875 138.993 188.067 137.457C186.895 136.816 181.627 136.023 176.359 135.695C166.396 135.074 166.824 135.244 158.313 128.508C153.944 125.05 150.696 124.377 146.762 126.116ZM167.18 148.196C170.38 149.147 173.225 150.827 174.797 152.696C177.77 156.229 179.506 156.536 179.175 153.471C178.866 150.602 181.92 149.902 184.511 152.247C187.284 154.757 186.948 155.546 182.187 157.707C177.16 159.989 170.906 160.18 163.741 158.273C157.948 156.73 150.28 152.783 149.718 151.054C149.283 149.712 155.866 146.805 159.505 146.732C160.918 146.703 164.372 147.362 167.18 148.196ZM371.159 150.93C374.48 155.222 372.748 157.853 359.805 168.172C353.751 172.998 346.998 181.291 348.411 182.164C348.966 182.507 351.112 181.435 353.179 179.782C358.361 175.637 367.937 171.434 373.392 170.91C377.04 170.56 378.302 170.873 379.769 172.494C383.314 176.411 381.697 178.721 370.937 185.118C364.279 189.076 358.263 193.717 352.937 199.003C343.878 207.995 339.131 210.628 331.937 210.654C323.306 210.686 317.483 205.2 320.387 199.773C321.282 198.1 321.219 197.68 320.07 197.68C316.396 197.68 316.437 206.609 320.124 209.399C321.572 210.495 321.493 210.826 319.336 212.673C311.796 219.132 302.163 224.489 294.21 226.645C283.306 229.602 263.891 226.021 259.895 220.316C258.165 217.847 257.994 211.248 259.545 206.801L260.652 203.624L264.95 207.585C269.381 211.67 277 214.68 282.908 214.68C290.337 214.68 301.5 210.421 307.056 205.467C308.222 204.427 310.472 203.225 312.056 202.796L314.937 202.015L311.748 200.353C305.77 197.239 304.029 192.018 306.553 184.778C307.848 181.063 307.009 179.515 305.109 182.114C303.89 183.781 303.62 183.687 301.119 180.714C297.865 176.846 297.731 174.415 300.626 171.719C303.057 169.454 309.222 168.959 312.586 170.76C314.378 171.719 314.44 172.025 313.138 173.51C311.261 175.651 310.019 179.68 311.237 179.68C311.751 179.68 313.311 177.957 314.704 175.852C319.74 168.244 338.359 153.982 346.404 151.572C348.396 150.975 351.103 150.643 352.422 150.833C354.624 151.152 354.459 151.417 350.378 154.109C341.895 159.706 329.983 172.56 331.695 174.271C331.962 174.538 336.401 170.549 341.559 165.405C348.171 158.811 352.827 155.113 357.347 152.867C364.013 149.552 369.498 148.783 371.159 150.93ZM107.06 180.355L107.669 186.18L100.506 193.472C84.113 210.158 75.667 229.445 73.787 254.489C73.428 259.269 72.64 263.511 72.036 263.915C71.334 264.384 72.257 265.87 74.588 268.023C81.092 274.033 81.78 276.406 80.999 290.13C80.242 303.402 79.682 301.416 87.014 311.423C91.051 316.932 84.568 322.618 76.355 320.773C68.78 319.071 64.437 312.854 64.437 303.712C64.437 297.188 62.971 297.18 57.134 303.672C54.084 307.064 51.76 311.092 49.883 316.238C46.62 325.185 44.13 328.68 41.019 328.68C32.224 328.68 32.809 308.206 41.946 296.236C45.473 291.616 46.223 289.68 44.488 289.68C41.787 289.68 35.136 301.776 32.802 310.931C29.934 322.186 27.297 325.129 22.751 322.15C19.345 319.918 18.175 316.116 18.718 309.041C19.354 300.743 23.145 292.886 29.956 285.745C33.144 282.403 35.112 279.597 34.522 279.233C32.818 278.18 25.119 286.094 21.006 293.126C17.932 298.382 16.89 299.471 15.8 298.566C13.836 296.936 14.129 293.883 16.803 288.142C19.745 281.823 26.696 275.624 33.951 272.847C37.017 271.674 40.992 269.595 42.785 268.228C47.242 264.829 52.688 262.68 56.846 262.68C60.429 262.68 62.563 260.994 60.554 259.752C59.32 258.989 60.464 244.102 62.459 234.957C67.504 211.829 80.794 190.693 99.86 175.477C105.602 170.895 106.108 171.238 107.06 180.355ZM125.437 193.66C125.437 199.765 124.963 209.129 124.383 214.469C123.397 223.561 119.542 242.841 117.867 247.066C117.319 248.446 117.495 248.827 118.52 248.486C120.326 247.884 123.919 233.837 125.899 219.637C127.636 207.184 127.976 184.131 126.437 183.18C125.793 182.782 125.437 186.516 125.437 193.66ZM72.719 187.042C74.489 187.791 76.755 189.323 77.755 190.445C79.528 192.437 79.484 192.609 76 197.459C70.963 204.47 63.855 219.909 61.734 228.443C60.745 232.419 59.487 235.527 58.937 235.351C58.387 235.174 56.921 232.588 55.68 229.605C53.914 225.36 53.479 222.602 53.68 216.928C53.867 211.654 53.596 209.676 52.687 209.678C50.859 209.681 51.066 223.372 52.976 228.804C53.822 231.211 55.515 234.755 56.737 236.68C59.764 241.448 59.236 245.346 55.45 246.177C52.354 246.857 48.286 245.203 42.621 240.961C40.798 239.595 39.038 238.746 38.711 239.073C37.747 240.037 41.628 243.735 45.882 245.906L49.827 247.92L47.219 249.286C44.345 250.792 40.804 249.948 32.745 245.837C28.413 243.627 22.437 237.466 22.437 235.21C22.437 230.689 26.73 224.864 34.826 218.398C38.231 215.678 38.563 215.576 37.494 217.574C36.822 218.83 34.671 221.629 32.714 223.795C28.502 228.458 29.118 230.318 33.488 226.131C37.806 221.994 41.834 215.311 45.085 206.892C51.517 190.229 62.171 182.577 72.719 187.042ZM98.145 215.93C97.837 224.317 97.28 232.17 96.908 233.381C96.384 235.08 94.983 235.84 90.754 236.718C87.742 237.343 85.105 237.681 84.893 237.469C84.68 237.257 85.685 234.18 87.126 230.632C88.819 226.463 89.916 221.526 90.227 216.68C90.632 210.365 91.188 208.508 93.742 204.93C95.411 202.593 97.21 200.68 97.74 200.68C98.342 200.68 98.494 206.419 98.145 215.93ZM88.02 218.765C87.128 225.487 83.832 234.124 80.878 237.479C78.929 239.693 78.495 239.859 78.469 238.398C78.403 234.706 86.52 213.68 88.011 213.68C88.387 213.68 88.391 215.968 88.02 218.765ZM315.437 233.68C316.749 234.528 316.737 234.651 315.342 234.665C312.564 234.691 301.747 242.352 295.435 248.762C284.354 260.017 275.254 275.114 272.278 287.18C271.6 289.93 270.683 292.607 270.241 293.13C268.883 294.735 269.375 274.502 270.827 269.048C274.796 254.144 288.02 238.456 300.319 234.061C304.607 232.528 313.316 232.309 315.437 233.68ZM324.88 238.903C326.905 241.793 326.886 249.792 324.838 256.748C320.957 269.936 307.506 290.474 297.262 298.854C281.148 312.037 270.212 308.221 273.868 290.691C276.757 276.831 284.847 263.133 297.858 250.067C310.018 237.855 320.976 233.328 324.88 238.903ZM95.428 240.43C95.423 241.392 93.872 246.669 91.981 252.155L88.542 262.13L100.966 274.655L113.391 287.18H139.164C164.519 287.18 164.99 287.218 168.189 289.5C172.257 292.401 173.437 294.574 173.437 299.164C173.437 304.089 171.395 307.654 166.077 312.012C154.499 321.499 158.057 336.217 176.422 354.815C187.046 365.573 197.487 372.831 207.349 376.312C219.667 380.661 224.7 378.939 228.374 369.12C232.158 359.006 230.768 344.792 224.852 333.099C219.372 322.269 206.493 310.855 195.7 307.265L190.937 305.681V297.93C190.937 291.924 190.437 289.18 188.716 285.735C187.494 283.29 186.594 281.216 186.716 281.126C186.837 281.036 190.312 279.957 194.437 278.728C198.562 277.499 205.892 274.971 210.725 273.11C215.559 271.25 222.406 269.432 225.94 269.069C232.184 268.43 232.474 268.505 236.152 271.708C258.201 290.916 268.53 318.019 263.445 343.328C259.558 362.678 243.146 379.105 225.549 381.257C222.462 381.635 218.812 382.727 217.437 383.685C212.889 386.853 203.053 391.362 194.937 393.998C171.66 401.56 144.367 402.362 122.823 396.119C116.884 394.398 111.942 393.68 106.032 393.68C77.162 393.68 45.542 378.312 33.736 358.541C28.356 349.533 28.085 350.001 38.643 350.072C45.722 350.12 48.719 349.713 51.22 348.365C53.025 347.391 54.237 346.166 53.913 345.641C53.567 345.081 52.006 345.388 50.13 346.386C44.917 349.158 32.825 348.594 26.011 345.26C19.18 341.918 11.836 333.998 7.76301 325.581C-3.77699 301.734 3.91602 278.8 29.069 262.063C36.676 257.002 56.203 247.45 57.437 248.187C57.712 248.352 57.784 250.985 57.597 254.038L57.257 259.59L51.951 261.133C49.032 261.981 44.361 264.212 41.57 266.091C38.779 267.969 34.956 270.014 33.074 270.635C18.916 275.307 7.40902 293.918 14.56 300.58C16.378 302.274 16.582 303.225 15.984 307.217C14.138 319.526 21.859 329.61 28.996 324.212C31.64 322.212 31.761 322.255 33.308 325.751C34.088 327.513 36.139 329.524 38.12 330.469C43.776 333.166 45.986 331.167 51.631 318.249C56.021 308.204 59.562 302.68 61.611 302.68C62.065 302.68 62.444 304.593 62.453 306.93C62.498 318.466 75.702 327.214 85.457 322.17C91.757 318.912 92.112 313.17 86.437 306.303C82.103 301.058 82.04 300.712 83.447 289.88C84.717 280.101 83.385 274.148 78.704 268.679L75.089 264.456L76.243 253.421C76.878 247.352 77.572 242.211 77.786 241.997C78.364 241.42 90.58 238.852 93.187 238.759C94.697 238.706 95.434 239.256 95.428 240.43Z" fill="#1F4E52"/>
</g>
<defs>
<clipPath id="clip0_182_8">
<rect width="445" height="403" fill="white"/>
</clipPath>
</defs>
</svg>
