<svg width="480" height="305" viewBox="0 0 480 305" fill="none" xmlns="http://www.w3.org/2000/svg">
<path d="M139.5 78.5C141.9 74.9 150.833 69 155 66.5C155 69.7 151 77.5 149 81C162.6 81.4 205.333 68.8333 225 62.5C259.8 52.1 276.167 43.5 279.5 40L259.5 31C261.667 31 268.5 31.3 278.5 32.5C288.5 33.7 288.333 39.6667 287 42.5C293.8 47.3 291.5 52.5 289.5 54.5C285.833 59.1667 268.6 71 229 85C179.5 102.5 152 101.5 144.5 100C138.5 98.8 139.667 91.8333 141 88.5C138.5 86 136.5 83 139.5 78.5Z" fill="#50949E"/>
<path d="M231 184.5C222.2 180.9 221.333 174.667 222 172C224 172 229.5 172.2 235.5 173C241.5 173.8 247.667 179.333 250 182C247.333 184.333 239.8 188.1 231 184.5Z" fill="#50949E"/>
<path fill-rule="evenodd" clip-rule="evenodd" d="M453.448 20.8902C448.97 23.1072 441.279 30.0372 435.874 36.7272L432.365 41.0702L428.619 38.5282C418.711 31.8052 401.231 35.5552 396.556 45.4072C395.594 47.4332 395.082 50.0752 395.403 51.3542C395.832 53.0622 395.494 53.7822 394.092 54.1492C390.658 55.0472 388.625 59.5992 388.625 66.3922C388.625 71.4562 389.253 73.9552 391.854 79.2392C396.436 88.5462 402.42 93.3242 416.382 98.8252L419.264 99.9602L418.793 109.729C418.065 124.852 412.627 134.82 402.541 139.516C397.944 141.657 388.258 142.808 386.834 141.383C386.559 141.109 387.017 137.702 387.853 133.813C389.132 127.852 389.172 125.771 388.102 120.562C386.423 112.381 382.644 105.647 376.768 100.364C370.648 94.8622 364.697 91.9942 356.476 90.5862L349.955 89.4692L348.525 84.6562C341.892 62.3192 321.143 46.1012 298.771 45.7662C291.838 45.6622 288.639 43.8902 288.398 40.0202C288.342 39.1202 288.229 37.6072 288.148 36.6592C287.87 33.4192 282.135 31.5752 270 30.8242C263.675 30.4332 255.125 29.3062 251 28.3202C241.976 26.1632 222.385 25.8602 213.5 27.7412C191.094 32.4842 172.999 43.0202 160.968 58.3292C158.202 61.8492 153.954 65.8922 151.528 67.3142C149.102 68.7352 144.841 72.1162 142.059 74.8262C136.66 80.0852 135.628 83.6252 138.394 87.4072C139.344 88.7072 139.512 90.0362 138.922 91.5892C137.829 94.4642 138.623 96.8372 141.531 99.3832C143.442 101.057 143.928 102.784 144.513 109.978L145.211 118.573L139.355 121.863C130.563 126.802 119.915 138.118 115.684 147.019C110.997 156.881 109.639 163.715 110.225 174.497C110.787 184.828 113.429 192.672 118.653 199.516C120.569 202.026 121.882 204.335 121.57 204.647C121.258 204.958 117.445 205.42 113.096 205.671C95.775 206.674 82.689 197.798 76.797 181.051C74.403 174.246 72.432 158.716 73.347 153.868C73.913 150.872 74.671 150.109 78.752 148.431C84.676 145.994 91.956 138.818 95.658 131.764C98.145 127.024 98.483 125.311 98.491 117.383C98.499 109.654 98.167 107.847 96.139 104.586C94.606 102.12 92.802 100.593 90.993 100.232C88.89 99.8112 88.062 98.9432 87.611 96.6862C86.465 90.9582 78.069 85.8832 69.739 85.8832C64.509 85.8832 56.935 89.0252 52.892 92.8712L48.781 96.7822L43.64 92.9432C33.251 85.1832 22.372 81.1602 16.919 83.0612C14.739 83.8212 13.771 85.0212 12.986 87.9342C12.414 90.0592 11.508 92.0692 10.973 92.4002C10.438 92.7302 10 94.4612 10 96.2462C10 100.027 13.018 104.862 22.828 116.796C26.631 121.423 31.923 129.232 34.589 134.149C40.224 144.544 47.052 151.37 53.555 153.109L57.789 154.241L58.503 163.812C59.858 181.979 64.809 195.142 74.108 205.305C87.272 219.692 109.105 224.537 129.474 217.593C136.251 215.282 136.534 215.265 139.474 216.987C144.571 219.972 156.995 222.915 167.239 223.566L176.977 224.184L172.93 228.575C167.57 234.39 162.365 245.429 161.51 252.797C159.308 271.769 173.478 289.247 195.219 294.372C219.275 300.044 246.463 290.793 268.991 269.269L276.637 261.965L284.568 269.742C307.108 291.844 336.36 297.494 346.019 281.611C347.021 279.963 349.564 277.661 351.67 276.495C355.836 274.189 360 267.368 360 262.853C360 257.941 356.943 249.954 352.561 243.42L348.178 236.883L351.339 236.88C355.896 236.875 371.651 234.069 377.5 232.219C406.372 223.091 413.547 199.063 393.198 179.653C385.408 172.223 376.798 168.07 363.538 165.347C360.637 164.751 360.706 164.669 366.913 161.353C370.398 159.491 374.1 157.198 375.139 156.257C376.791 154.763 377.669 154.694 382.091 155.715C410.375 162.243 433.922 140.498 433.985 107.791L434 100.2L438.057 98.9842C442.733 97.5832 449.024 91.7162 451.905 86.0692C452.998 83.9262 454.874 78.1702 456.072 73.2782C457.271 68.3862 460.043 60.3332 462.231 55.3832C472.941 31.1582 472.79 32.2642 466.445 24.4752C461.343 18.2122 459.748 17.7722 453.448 20.8902ZM462.8 22.0832C464.607 23.8902 464.251 24.8832 461.799 24.8832C457.73 24.8832 448.703 35.5522 443.087 47.0002C440.289 52.7032 438 57.9352 438 58.6262C438 59.4212 436.438 59.9232 433.75 59.9932L429.5 60.1022L434 60.9652C436.475 61.4402 439.512 62.0742 440.75 62.3752C441.988 62.6752 443 62.4632 443 61.9022C443 61.3422 442.269 60.8832 441.375 60.8832C439.057 60.8832 440.119 56.4762 444.582 47.5832C453.1 30.6122 461.571 23.4702 467.171 28.5382C470.104 31.1922 469.348 35.2452 463.597 47.6912C458.648 58.4032 456.308 65.0982 452.955 78.1492C450.12 89.1872 442.374 96.9392 433.44 97.6802C427.649 98.1602 423 96.2362 423 93.3602C423 92.5482 422.501 91.8832 421.892 91.8832C421.209 91.8832 421.024 92.8432 421.411 94.3832C421.987 96.6782 421.763 96.8832 418.679 96.8832C416.831 96.8832 412.602 95.5252 409.28 93.8652C395.509 86.9842 387.138 71.3912 391.105 60.0112C394.493 50.2932 404.125 56.8542 404.308 69.0042C404.379 73.6562 404.471 73.8042 406.941 73.2162C411.413 72.1512 412.753 71.0252 414.952 66.4822C417.749 60.7052 418.511 55.7072 417.022 52.9232C415.7 50.4542 412.517 50.4672 404.327 52.9772C400.913 54.0222 399.866 54.0172 398.577 52.9472C395.84 50.6752 396.694 46.8652 400.819 42.9412C405.073 38.8942 410.532 36.8722 417.116 36.9052C421.512 36.9272 429.164 39.7212 430.428 41.7662C430.799 42.3662 429.954 46.0402 428.551 49.9302C425.775 57.6252 425.542 58.8832 426.889 58.8832C427.377 58.8832 428.064 57.3582 428.413 55.4942C429.691 48.6832 435.124 39.8492 442.862 32.0022C452.606 22.1202 459.438 18.7212 462.8 22.0832ZM241.789 28.9612C247.13 29.5552 254.2 30.9442 257.5 32.0502C264.423 34.3702 276 39.9432 276 40.9562C276 42.8262 253.579 52.3632 235.5 58.1832C211.99 65.7512 153.454 80.6702 152.198 79.4142C151.344 78.5602 154.12 72.3592 158.503 65.3272C172.253 43.2652 197.846 29.8702 229.789 28.0162C231.049 27.9432 236.449 28.3682 241.789 28.9612ZM281.222 33.9282C283.27 34.4972 285.362 35.7082 285.873 36.6202C287.012 38.6552 285.678 42.5172 282.759 45.6332C281.115 47.3882 280.986 47.8832 282.171 47.8832C283.006 47.8832 284.508 46.9792 285.507 45.8752C287.208 43.9952 287.442 43.9732 289.162 45.5302C292.116 48.2032 291.325 50.9372 286.156 55.9192C277.119 64.6302 253.379 76.1742 225.64 85.3452C196.389 95.0162 173.349 99.8832 156.819 99.8832C143.167 99.8832 138.7 97.4322 141.056 91.2342C141.824 89.2152 141.701 88.2102 140.528 86.9142C137.125 83.1542 139.447 78.6622 148.06 72.3392C150.829 70.3062 153.373 68.9232 153.715 69.2652C154.057 69.6062 151.898 72.1412 148.918 74.8982C144.492 78.9922 143.775 80.0882 145 80.8812C145.825 81.4152 147.463 81.8592 148.64 81.8682C153.942 81.9062 194.065 72.3422 220.241 64.8022C248.133 56.7672 271.875 47.2962 278.75 41.4632C282.083 38.6352 282.97 36.2752 280.75 36.1412C276.921 35.9112 269.293 34.4982 268 33.7782C265.798 32.5542 276.719 32.6772 281.222 33.9282ZM311.165 49.3322C323.966 53.1852 336.999 63.9952 342.875 75.6352C346.188 82.1992 348.96 92.1792 348.985 97.6332C348.993 99.4202 349.511 100.883 350.136 100.883C350.912 100.883 351.07 99.4132 350.636 96.2442L350 91.6042L355.027 92.2002C366.813 93.5962 379.337 102.775 384.27 113.632C387.571 120.898 387.356 133.449 383.798 141.101C379 151.422 367.298 161.231 357.25 163.355C354.009 164.04 354 164.031 354 160.028C354 154.695 352.817 151.853 349.01 148.047C344.203 143.24 343.289 144.269 347.807 149.401C355.93 158.63 353.894 167.205 340.632 179.611C316.434 202.247 260.566 224.448 220.5 227.35C205.284 228.452 190.387 225.117 185.024 219.409C183.83 218.137 182.24 215.136 181.493 212.74L180.134 208.383L180.067 211.91C180.03 213.851 180.721 216.467 181.602 217.725C182.483 218.983 182.96 220.256 182.662 220.555C181.217 221.999 164.942 222.014 157.363 220.578C149.555 219.098 139 215.322 139 214.008C139 213.662 140.912 212.363 143.25 211.12C145.588 209.877 149.704 206.974 152.398 204.668L157.296 200.474L167.898 200.429C177.545 200.387 179.011 200.124 184.176 197.507C189.103 195.011 197.641 187.883 195.705 187.883C195.327 187.883 192.876 189.52 190.259 191.521C182.704 197.298 177.537 199.182 169 199.273C159.731 199.373 153.987 197.004 147.627 190.46C137.174 179.705 137.609 166.003 148.764 154.633C151.328 152.02 152.802 149.883 152.041 149.883C149.894 149.883 142.337 158.308 140.888 162.317C139.273 166.781 137.886 166.439 136.185 161.158C133.52 152.881 138.881 143.428 148.098 140.155C150.794 139.197 153 138.021 153 137.541C153 137.062 152.288 136.942 151.418 137.276C150.548 137.61 149.275 137.883 148.59 137.883C145.914 137.883 138.301 144.003 136.095 147.927C134.205 151.291 133.85 153.138 134.191 157.849C134.437 161.25 135.395 164.824 136.513 166.511C137.56 168.091 138.302 170.31 138.161 171.443C137.706 175.123 140.034 183.288 142.69 187.326L145.283 191.268L141.473 194.467C139.377 196.227 134.736 199.123 131.16 200.903L124.657 204.139L121.831 200.761C114.222 191.665 110.16 177.062 111.92 165.125C116.184 136.203 141.312 115.469 174.845 113.201C181.377 112.759 183.691 112.29 182.532 111.641C180.138 110.301 163.291 112.336 154.928 114.975C151.095 116.185 147.721 116.937 147.431 116.647C147.141 116.357 146.635 112.917 146.307 109.001L145.71 101.883L155.605 101.879C167.481 101.874 179.701 100.002 198.5 95.3072C241.269 84.6272 286.229 64.2532 291.225 53.2882L292.35 50.8192L296.175 54.5542C300.964 59.2312 301.182 57.6242 296.5 52.1542C294.575 49.9052 293 47.7412 293 47.3452C293 46.3152 305.79 47.7142 311.165 49.3322ZM414.8 53.0832C418.159 56.4422 412.989 70.8832 408.428 70.8832C407.715 70.8832 406.677 68.6032 406.043 65.6462C405.425 62.7662 404.286 59.4422 403.512 58.2602C402.168 56.2092 402.341 56.0182 407.302 54.0622C413.619 51.5712 413.327 51.6102 414.8 53.0832ZM264.764 57.6942C260.218 60.2762 258.801 61.8832 261.072 61.8832C262.417 61.8832 270.804 57.0082 271.559 55.7882C272.587 54.1252 269.548 54.9772 264.764 57.6942ZM285.25 69.5452C282.487 70.6602 284.277 71.3642 289.037 71.0342C295.938 70.5562 298.4 71.3462 303.025 75.5252C307.233 79.3262 308.858 77.9782 304.736 74.1052C300.271 69.9102 290.191 67.5512 285.25 69.5452ZM420 73.1832C420 73.8982 420.527 75.0102 421.171 75.6542C421.815 76.2982 422.291 79.0882 422.228 81.8542C422.165 84.6202 422.538 86.8832 423.057 86.8832C423.576 86.8832 424 85.8192 424 84.5182C424 83.2172 424.9 81.0092 426 79.6102C428.528 76.3962 428.539 75.5242 426.034 76.8652C424.364 77.7592 423.835 77.4642 422.509 74.9002C420.837 71.6662 420 71.0942 420 73.1832ZM31.333 87.5282C40.294 92.0272 49.013 98.8952 53.497 104.987C55.88 108.223 58.031 111.436 58.278 112.127C58.524 112.818 59.081 113.052 59.515 112.648C60.18 112.028 58.32 108.899 51.5 99.1552C50.74 98.0692 51.501 96.8292 54.675 93.9852C59.059 90.0572 64.519 87.8832 70 87.8832C78.57 87.8832 86.852 93.3522 85.633 98.2072C84.891 101.167 81.869 102.101 75.748 101.262C67.431 100.122 64.927 103.933 68.908 111.673C71.999 117.681 76.267 121.107 80.993 121.373C84.457 121.569 84.992 121.35 84.376 119.994C83.301 117.625 82.707 109.185 83.417 106.358C83.755 105.011 85.15 103.176 86.516 102.281C88.817 100.773 89.19 100.777 91.584 102.346C93.004 103.277 94.856 105.687 95.698 107.703C97.885 112.937 97.046 124.994 94.095 130.732C91.129 136.499 84.489 143.593 79.835 145.967C75.801 148.025 72.497 148.507 73.495 146.891C73.832 146.345 73.648 145.108 73.085 144.141C72.207 142.635 72.056 142.779 72.03 145.148C71.996 148.249 67.793 151.444 62.409 152.462C53.675 154.113 43.285 146.418 36.017 132.914C33.612 128.445 27.504 119.637 22.445 113.341C11.421 99.6202 10.074 96.9452 12.404 93.3892C17.032 86.3272 32.713 95.9552 44.739 113.242C47.214 116.801 47.291 117.197 45.727 118.341C42.551 120.663 45.026 120.598 49.69 118.237C52.247 116.942 54.938 115.883 55.669 115.883C56.401 115.883 57 115.385 57 114.776C57 114.13 56.27 113.951 55.25 114.346C50.077 116.347 48.53 116.078 46.628 112.844C43.692 107.852 32.375 96.3322 27.053 92.9172C24.395 91.2122 20.27 89.4832 17.884 89.0762L13.547 88.3362L15.884 85.9992C17.84 84.0432 18.867 83.7662 22.193 84.2982C24.378 84.6472 28.491 86.1012 31.333 87.5282ZM184.315 85.9792C179.813 87.0002 172.649 88.1832 168.396 88.6092C164.142 89.0352 160.506 89.8562 160.314 90.4342C159.904 91.6712 163.431 91.4352 177.5 89.2802C189.904 87.3812 195 86.0892 195 84.8442C195 83.6372 194.331 83.7082 184.315 85.9792ZM285.957 87.1332C280.967 90.4962 278.157 96.8852 277.118 107.232L276.229 116.081L280.694 124.949C285.661 134.812 289.94 139.251 296.071 140.902C303.583 142.925 309.952 139.64 314.286 131.507C316.073 128.153 316.504 125.61 316.593 117.883C316.653 112.658 317.025 107.371 317.418 106.133C318.432 102.948 317.302 100.178 314.714 99.5092C313.496 99.1942 311.457 97.0952 310.183 94.8452C305.139 85.9392 293.314 82.1752 285.957 87.1332ZM302.868 89.6472C306.417 92.5022 311 98.3462 311 100.017C311 100.478 309.087 102.08 306.75 103.577C304.413 105.075 302.313 106.431 302.083 106.591C301.854 106.752 301.967 107.183 302.333 107.549C302.7 107.916 305.453 106.526 308.452 104.461C313.967 100.662 316 100.494 316 103.838C316 108.028 305.2 114.916 294.781 117.372C283.564 120.017 276.572 118.688 278.506 114.278C278.962 113.236 279.224 110.316 279.088 107.789C278.607 98.9072 281.908 91.8022 288.411 87.7182C292.575 85.1032 298.144 85.8462 302.868 89.6472ZM221.542 92.2962C216.291 95.4652 212.983 101.191 213.115 106.883L213.219 111.383L214.044 107.209C215.524 99.7282 218.362 95.7372 224.393 92.6552C225.984 91.8432 226.853 90.9102 226.325 90.5842C225.796 90.2572 223.644 91.0282 221.542 92.2962ZM427.557 99.0022L432 100.12V108.107C432 127.46 423.1 143.766 408.518 151.126C403.612 153.603 400.89 154.254 393.752 154.661C388.477 154.962 385 154.779 385 154.2C385 153.672 385.717 151.134 386.594 148.561C388.155 143.979 388.275 143.883 392.416 143.883C403.051 143.883 411.936 137.519 417.298 126.06C420.109 120.054 420.409 118.466 420.452 109.402C420.493 100.907 421.091 97.9842 422.807 97.8982C422.976 97.8902 425.114 98.3862 427.557 99.0022ZM234.007 102.43C226.761 105.668 222.26 112.351 221.366 121.201C221.078 124.051 220.368 127.365 219.788 128.566C218.77 130.675 218.949 131.687 220.906 134.883C221.411 135.708 222.58 138.531 223.504 141.157C229.743 158.89 246.438 165.708 256.701 154.716C261.334 149.754 263.211 143.339 263.502 131.479C263.762 120.845 263.67 120.279 261.304 117.883C259.946 116.508 257.525 113.479 255.925 111.152C250.284 102.949 241.059 99.2782 234.007 102.43ZM81.252 111.383C80.965 115.783 80.566 119.571 80.364 119.801C79.371 120.932 74.335 116.883 71.826 112.937C69.08 108.618 68.26 104.957 69.712 103.505C70.103 103.113 72.977 102.926 76.098 103.088L81.772 103.383L81.252 111.383ZM248.551 106.011C251.67 108.107 258 116.077 258 117.908C258 118.283 255.413 119.994 252.25 121.71C248.735 123.617 247.277 124.838 248.5 124.851C249.6 124.863 252.3 123.764 254.5 122.409C258.935 119.678 261.609 119.239 262.269 121.133C263.028 123.309 261.95 124.707 257.161 127.754C249.319 132.745 234.362 135.741 225.511 134.095C221.051 133.265 219.652 130.589 222.564 128.46C223.594 127.707 223.892 126.935 223.296 126.566C221.85 125.672 223.418 116.944 225.899 112.081C227.795 108.365 231.314 105.066 235 103.552C237.893 102.363 245.055 103.663 248.551 106.011ZM314.99 117.633C314.959 142.496 294.08 148.089 283.108 126.173C281.949 123.857 281 121.553 281 121.051C281 120.55 284.488 119.917 288.75 119.644C297.359 119.094 306.592 116.028 310.799 112.324C312.285 111.016 313.837 109.932 314.25 109.915C314.663 109.897 314.996 113.371 314.99 117.633ZM67.463 127.229C66.911 130.171 66.514 130.527 64.168 130.179L61.5 129.783L64.112 131.293C65.549 132.123 67.291 134.17 67.983 135.843C69.438 139.355 71.568 140.076 70.317 136.633C69.868 135.395 69.5 132.02 69.5 129.133C69.5 123.209 68.409 122.188 67.463 127.229ZM261.721 136.385C260.23 156.097 246.002 164.725 233.33 153.6C229.99 150.667 224.003 140.1 224.001 137.133C224 136.247 226.133 135.883 231.333 135.883C240.898 135.883 248.571 134.285 255.168 130.919C258.101 129.423 260.898 128.416 261.384 128.682C261.87 128.948 262.022 132.415 261.721 136.385ZM71.598 160.634C71.815 182.158 79.67 197.156 94.554 204.464C99.958 207.117 101.412 207.378 110.5 207.326C122 207.259 128.512 205.256 138.364 198.753C141.589 196.625 144.538 194.883 144.918 194.883C145.297 194.883 147.158 196.496 149.054 198.468L152.5 202.053L149 205.025C147.075 206.659 141.9 209.767 137.5 211.93C115.046 222.97 93.921 220.997 78.206 206.393C67.131 196.101 61.24 181.863 60.759 164.226L60.5 154.736L65.5 152.943C68.25 151.957 70.725 151.09 71 151.017C71.275 150.944 71.544 155.271 71.598 160.634ZM223.455 167.338C219.669 171.123 220.023 177.106 224.284 181.367C232.288 189.371 251.812 187.505 257.236 178.219C258.622 175.846 258.816 174.529 258.069 172.565C256.71 168.99 254.326 167.983 243.3 166.328C229.461 164.25 226.385 164.407 223.455 167.338ZM368.955 168.358C377.627 170.666 386.645 175.624 392.411 181.253C409.079 197.526 405.711 217.306 384.565 227.337C377.265 230.8 366.671 233.599 359.238 234.029C355.4 234.251 354.529 233.837 350.488 229.871C344.759 224.248 344.736 222.883 350.369 222.883C356.413 222.883 371.096 220.223 376.237 218.197C389.587 212.936 393.895 205.477 389.059 195.998C384.795 187.641 371.884 180.045 360.374 179.121C353.938 178.604 353.863 178.564 354.505 175.99C355.663 171.351 359.017 166.882 361.332 166.895C362.524 166.901 365.955 167.56 368.955 168.358ZM230.934 175.262C231.795 176.007 234.033 176.602 235.906 176.584C238.53 176.557 239.999 177.317 242.299 179.892L245.285 183.233L242.892 184.137C239.549 185.4 231.135 184.13 227.349 181.79C224.268 179.885 221.489 174.728 222.825 173.392C223.775 172.441 229.092 173.667 230.934 175.262ZM362.04 180.891C369.473 182.3 377.816 186.327 382.332 190.685C399.825 207.563 382.29 220.823 342 221.181C328.162 221.305 327.235 221.186 321.692 218.584C313.041 214.522 303.507 213.122 297.92 215.094C288.846 218.295 287.385 218.747 282.518 219.86C272.207 222.218 267.362 229.388 268.205 241.04L268.655 247.266L261.13 255.142C251.564 265.155 239.423 273.278 228.166 277.195C202.764 286.037 176.945 275.738 177.022 256.795C177.051 249.706 179.637 244.204 186.205 237.26C195.194 227.755 195.544 227.604 205.419 228.986C212.567 229.986 216.075 229.903 227.601 228.461C265.929 223.668 308.642 206.731 339.566 184.065C341.18 182.882 344.975 181.51 348 181.015C355.664 179.763 356.076 179.76 362.04 180.891ZM319.099 219.345C328.521 223.174 337.095 229.198 345.069 237.592C358.631 251.87 361.69 265.917 352.857 273.35C348.764 276.794 347.602 276.532 349.682 272.633C350.755 270.622 351.43 267.095 351.453 263.383C351.503 255.367 347.741 247.766 339.288 238.805C327.718 226.54 315.426 220.075 301.5 218.929C293.734 218.29 293.602 218.236 297 217.105C302.078 215.414 311.866 216.406 319.099 219.345ZM305.779 224.11C315.941 228.259 322.878 232.895 331.047 240.995C346.21 256.03 351.084 273.023 342.904 282.339C338.677 287.154 332.534 289.284 324.748 288.637C311.625 287.545 299.269 281.058 286.095 268.343L277.691 260.231L283.44 252.592C286.603 248.39 289.029 244.469 288.831 243.877C288.634 243.285 285.816 246.433 282.569 250.873C270.539 267.321 256.179 279.683 240.844 286.794C229.676 291.972 221.334 293.883 209.896 293.883C193.826 293.883 180.846 288.955 172.517 279.691C165.473 271.856 163.5 266.854 163.5 256.831C163.5 248.968 163.799 247.679 167.213 240.831C169.255 236.735 172.654 231.4 174.766 228.975C178.046 225.211 178.994 224.665 181.256 225.232C182.713 225.598 185.153 226.971 186.679 228.283L189.452 230.669L185.378 235.089C172.426 249.14 171.603 262.947 183.102 273.285C193.876 282.971 213.093 284.971 230.92 278.261C245.698 272.699 261.579 259.733 273.477 243.519C279.664 235.087 279.667 233.613 273.5 234.131C271 234.341 270.551 234.05 270.807 232.383C271.329 228.979 274.423 225.484 279.059 223.062C285.093 219.91 296.597 220.361 305.779 224.11ZM312.445 222.864C327.23 227.951 342.854 242.06 348.153 255.11C350.054 259.79 350.59 267.883 349 267.883C348.45 267.883 348 266.871 347.999 265.633C347.998 262.172 342.513 251.367 337.554 245.057C330.5 236.08 318.709 227.165 308.307 222.943C301.999 220.383 305.063 220.324 312.445 222.864Z" fill="#1F4E52"/>
</svg>
